# xmcd
#
# Track frame offsets:
#	150
#	26710
#	39265
#	51025
#	61452
#	72327
#	84100
#	98565
#	111940
#	128175
#	138692
#	161357
#
# Disc length: 2356
#
# Revision: 2
# Processed by: cddbd v1.5.1PL0 Copyright (c) Steve Scherf et al.
# Submitted via: CDex 1.51
# Normalized: r1:TDELIM( - )
#
DISCID=9b09320c
DTITLE=Various Artist - Restoration Hardware Ain't Misbehavin' Vintage Jazz
DYEAR=2003
DGENRE=Jazz
TTITLE0=Louis Armstrong and Ella Fitzgerald - Cheek to Cheek
TTITLE1=Carmen McRae - Them There Eyes
TTITLE2=Doris Day with Paul Weston and Orchestra - Ain't We Got Fun
TTITLE3=Tony Bennett with Count Basie and His Orchestra - Anything Goes
TTITLE4=Gene Krupa and Orchestra with Anita O'Day - Tea for Two
TTITLE5=Sarah Vaughan with George Treadwell and His All Stars - Nice Work if You Can Get it
TTITLE6=Benny Goodman and Peggy Lee - Why Don't You Do Right
TTITLE7=Teddy WIlson and Billie Holiday - What a Little Moonlight Can Do
TTITLE8=Nina Simone - My Baby Just Cares For Me
TTITLE9=Dinah Washington - Call Me Irresponsible
TTITLE10=Jack Sheldon - Mack The Knife
TTITLE11=Dave Brubeck Quartet with Jimmy Rushing - Aint Misbehavin'
EXTD=YEAR: 2003
EXTT0=
EXTT1=
EXTT2=
EXTT3=
EXTT4=
EXTT5=
EXTT6=
EXTT7=
EXTT8=
EXTT9=
EXTT10=
EXTT11=
PLAYORDER=
